<mxfile host="app.diagrams.net" agent="Mozilla/5.0 (Windows NT 10.0; Win64; x64) AppleWebKit/537.36 (KHTML, like Gecko) Chrome/132.0.0.0 Safari/537.36" version="26.0.10">
  <diagram id="C5RBs43oDa-KdzZeNtuy" name="Page-1">
    <mxGraphModel dx="712" dy="910" grid="1" gridSize="10" guides="1" tooltips="1" connect="1" arrows="1" fold="1" page="1" pageScale="1" pageWidth="827" pageHeight="1169" math="0" shadow="0">
      <root>
        <mxCell id="WIyWlLk6GJQsqaUBKTNV-0" />
        <mxCell id="WIyWlLk6GJQsqaUBKTNV-1" parent="WIyWlLk6GJQsqaUBKTNV-0" />
        <mxCell id="dD8fBHzeQAmdIIVGzdC5-3" value="Scheduler" style="swimlane;fontStyle=1;align=center;verticalAlign=top;childLayout=stackLayout;horizontal=1;startSize=26;horizontalStack=0;resizeParent=1;resizeParentMax=0;resizeLast=0;collapsible=1;marginBottom=0;whiteSpace=wrap;html=1;" parent="WIyWlLk6GJQsqaUBKTNV-1" vertex="1">
          <mxGeometry x="570" y="329" width="380" height="210" as="geometry" />
        </mxCell>
        <mxCell id="dD8fBHzeQAmdIIVGzdC5-4" value="&lt;div&gt;&lt;span style=&quot;background-color: transparent; color: light-dark(rgb(0, 0, 0), rgb(255, 255, 255));&quot;&gt;- drone: Drone&lt;/span&gt;&lt;br&gt;&lt;/div&gt;&lt;div&gt;- missionQueue: MissionQueue&lt;/div&gt;" style="text;strokeColor=none;fillColor=none;align=left;verticalAlign=top;spacingLeft=4;spacingRight=4;overflow=hidden;rotatable=0;points=[[0,0.5],[1,0.5]];portConstraint=eastwest;whiteSpace=wrap;html=1;" parent="dD8fBHzeQAmdIIVGzdC5-3" vertex="1">
          <mxGeometry y="26" width="380" height="54" as="geometry" />
        </mxCell>
        <mxCell id="dD8fBHzeQAmdIIVGzdC5-5" value="" style="line;strokeWidth=1;fillColor=none;align=left;verticalAlign=middle;spacingTop=-1;spacingLeft=3;spacingRight=3;rotatable=0;labelPosition=right;points=[];portConstraint=eastwest;strokeColor=inherit;" parent="dD8fBHzeQAmdIIVGzdC5-3" vertex="1">
          <mxGeometry y="80" width="380" height="8" as="geometry" />
        </mxCell>
        <mxCell id="dD8fBHzeQAmdIIVGzdC5-6" value="&lt;div&gt;+ Scheduler():&lt;/div&gt;&lt;div&gt;+ addDrone(drone: Drone): void&lt;/div&gt;&lt;div&gt;&lt;div&gt;&lt;div&gt;+ run(): void&lt;/div&gt;&lt;/div&gt;&lt;/div&gt;&lt;div&gt;&lt;div&gt;+ handleFireReq(zone: Zone): void&lt;/div&gt;&lt;/div&gt;&lt;div&gt;+ droneStatusUpdated(status: DroneStatus): void&lt;/div&gt;&lt;div&gt;+ zoneSeverityUpdated(zone: Zone): void&lt;/div&gt;&lt;div&gt;- dispatch(drone: Drone, zone: Zone): void&lt;/div&gt;&lt;div&gt;- comparePriority(zone1: Zone, zone2: Zone): boolean&lt;/div&gt;" style="text;strokeColor=none;fillColor=none;align=left;verticalAlign=top;spacingLeft=4;spacingRight=4;overflow=hidden;rotatable=0;points=[[0,0.5],[1,0.5]];portConstraint=eastwest;whiteSpace=wrap;html=1;" parent="dD8fBHzeQAmdIIVGzdC5-3" vertex="1">
          <mxGeometry y="88" width="380" height="122" as="geometry" />
        </mxCell>
        <mxCell id="dD8fBHzeQAmdIIVGzdC5-7" value="FireIncidentSubsystem" style="swimlane;fontStyle=1;align=center;verticalAlign=top;childLayout=stackLayout;horizontal=1;startSize=26;horizontalStack=0;resizeParent=1;resizeParentMax=0;resizeLast=0;collapsible=1;marginBottom=0;whiteSpace=wrap;html=1;" parent="WIyWlLk6GJQsqaUBKTNV-1" vertex="1">
          <mxGeometry x="1150" y="329" width="410" height="200" as="geometry">
            <mxRectangle x="600" y="260" width="160" height="30" as="alternateBounds" />
          </mxGeometry>
        </mxCell>
        <mxCell id="dD8fBHzeQAmdIIVGzdC5-8" value="&lt;div&gt;- scheduler: Scheduler&lt;/div&gt;- clearZones: ArrayList&amp;lt;Zone&amp;gt;&lt;div&gt;- fireZones: ArrayList&amp;lt;Zone&amp;gt;&lt;br&gt;&lt;div&gt;&lt;br&gt;&lt;/div&gt;&lt;/div&gt;" style="text;strokeColor=none;fillColor=none;align=left;verticalAlign=top;spacingLeft=4;spacingRight=4;overflow=hidden;rotatable=0;points=[[0,0.5],[1,0.5]];portConstraint=eastwest;whiteSpace=wrap;html=1;" parent="dD8fBHzeQAmdIIVGzdC5-7" vertex="1">
          <mxGeometry y="26" width="410" height="54" as="geometry" />
        </mxCell>
        <mxCell id="dD8fBHzeQAmdIIVGzdC5-9" value="" style="line;strokeWidth=1;fillColor=none;align=left;verticalAlign=middle;spacingTop=-1;spacingLeft=3;spacingRight=3;rotatable=0;labelPosition=right;points=[];portConstraint=eastwest;strokeColor=inherit;" parent="dD8fBHzeQAmdIIVGzdC5-7" vertex="1">
          <mxGeometry y="80" width="410" height="8" as="geometry" />
        </mxCell>
        <mxCell id="dD8fBHzeQAmdIIVGzdC5-10" value="+ FireIncidentSubsystem(scheduler: Scheduler, zones: ArrayList&amp;lt;Zone&amp;gt;):&lt;div&gt;+ manualReqDrone(zone: Zone): void&lt;/div&gt;&lt;div&gt;+ readSimEventFile(eventFile: File): void&lt;/div&gt;&lt;div&gt;+ readSimZoneFile(zoneFile: File): void&lt;/div&gt;&lt;div&gt;+ run(): void&lt;/div&gt;&lt;div&gt;- simStartFire(): void&lt;/div&gt;&lt;div&gt;- isOnFire(zone: Zone): boolean&lt;/div&gt;" style="text;strokeColor=none;fillColor=none;align=left;verticalAlign=top;spacingLeft=4;spacingRight=4;overflow=hidden;rotatable=0;points=[[0,0.5],[1,0.5]];portConstraint=eastwest;whiteSpace=wrap;html=1;" parent="dD8fBHzeQAmdIIVGzdC5-7" vertex="1">
          <mxGeometry y="88" width="410" height="112" as="geometry" />
        </mxCell>
        <mxCell id="dD8fBHzeQAmdIIVGzdC5-19" value="Drone" style="swimlane;fontStyle=1;align=center;verticalAlign=top;childLayout=stackLayout;horizontal=1;startSize=26;horizontalStack=0;resizeParent=1;resizeParentMax=0;resizeLast=0;collapsible=1;marginBottom=0;whiteSpace=wrap;html=1;" parent="WIyWlLk6GJQsqaUBKTNV-1" vertex="1">
          <mxGeometry x="110" y="420" width="280" height="430" as="geometry" />
        </mxCell>
        <mxCell id="dD8fBHzeQAmdIIVGzdC5-20" value="&lt;div&gt;+ &lt;u&gt;BASE_POSITION: Position = &amp;lt;val&amp;gt;&lt;/u&gt;&lt;/div&gt;- &lt;u&gt;TOP_SPEED: float = &amp;lt;val&amp;gt;&lt;/u&gt;&lt;div&gt;- &lt;u&gt;TAKEOFF_ACCEL_RATE&lt;/u&gt;&lt;u style=&quot;background-color: transparent; color: light-dark(rgb(0, 0, 0), rgb(255, 255, 255));&quot;&gt;: float&lt;/u&gt;&lt;u style=&quot;background-color: transparent; color: light-dark(rgb(0, 0, 0), rgb(255, 255, 255));&quot;&gt;&amp;nbsp;= &amp;lt;val&amp;gt;&lt;/u&gt;&lt;/div&gt;&lt;div&gt;- &lt;u&gt;LAND_DECEL_RATE&lt;/u&gt;&lt;u style=&quot;background-color: transparent; color: light-dark(rgb(0, 0, 0), rgb(255, 255, 255));&quot;&gt;: float&lt;/u&gt;&lt;u style=&quot;background-color: transparent; color: light-dark(rgb(0, 0, 0), rgb(255, 255, 255));&quot;&gt;&amp;nbsp;= &amp;lt;val&amp;gt;&lt;/u&gt;&lt;/div&gt;&lt;div&gt;- &lt;u&gt;ARRIVAL_DISTANCE_THRESHOLD = &amp;lt;val&amp;gt;&lt;/u&gt;&lt;/div&gt;&lt;div&gt;- id: int&lt;/div&gt;&lt;div&gt;- position: Position&lt;/div&gt;&lt;div&gt;- tank: AgentTank&lt;/div&gt;&lt;div&gt;&lt;span style=&quot;background-color: transparent; color: light-dark(rgb(0, 0, 0), rgb(255, 255, 255));&quot;&gt;- rating: float&lt;/span&gt;&lt;/div&gt;&lt;div&gt;&lt;span style=&quot;background-color: transparent; color: light-dark(rgb(0, 0, 0), rgb(255, 255, 255));&quot;&gt;- zoneToService: Zone&lt;/span&gt;&lt;/div&gt;&lt;div&gt;&lt;span style=&quot;background-color: transparent; color: light-dark(rgb(0, 0, 0), rgb(255, 255, 255));&quot;&gt;- status: Status&lt;/span&gt;&lt;/div&gt;&lt;div&gt;- scheduler: Scheduler&lt;/div&gt;" style="text;strokeColor=none;fillColor=none;align=left;verticalAlign=top;spacingLeft=4;spacingRight=4;overflow=hidden;rotatable=0;points=[[0,0.5],[1,0.5]];portConstraint=eastwest;whiteSpace=wrap;html=1;" parent="dD8fBHzeQAmdIIVGzdC5-19" vertex="1">
          <mxGeometry y="26" width="280" height="194" as="geometry" />
        </mxCell>
        <mxCell id="dD8fBHzeQAmdIIVGzdC5-21" value="" style="line;strokeWidth=1;fillColor=none;align=left;verticalAlign=middle;spacingTop=-1;spacingLeft=3;spacingRight=3;rotatable=0;labelPosition=right;points=[];portConstraint=eastwest;strokeColor=inherit;" parent="dD8fBHzeQAmdIIVGzdC5-19" vertex="1">
          <mxGeometry y="220" width="280" height="8" as="geometry" />
        </mxCell>
        <mxCell id="dD8fBHzeQAmdIIVGzdC5-22" value="+ Drone(id: int, scheduler: Scheduler):&lt;div&gt;+ getPosition(): Position&lt;/div&gt;&lt;div&gt;+ recover(): void&lt;/div&gt;&lt;div&gt;+ releaseAgent(): void&lt;/div&gt;&lt;div&gt;+ stopAgent(): void&lt;/div&gt;&lt;div&gt;+ getTankCapacity(): float&lt;/div&gt;&lt;div&gt;+ fly(position: Position): void&lt;/div&gt;&lt;div&gt;+ setZoneToService(zone: Zone): void&lt;/div&gt;&lt;div&gt;+ getZoneToService(): Zone&lt;/div&gt;&lt;div&gt;+ setStatus(status: Status): void&lt;/div&gt;&lt;div&gt;+ getStatus(): Status&lt;/div&gt;&lt;div&gt;+ equals(obj Object): boolean&lt;/div&gt;&lt;div&gt;+ run(): void&lt;/div&gt;" style="text;strokeColor=none;fillColor=none;align=left;verticalAlign=top;spacingLeft=4;spacingRight=4;overflow=hidden;rotatable=0;points=[[0,0.5],[1,0.5]];portConstraint=eastwest;whiteSpace=wrap;html=1;" parent="dD8fBHzeQAmdIIVGzdC5-19" vertex="1">
          <mxGeometry y="228" width="280" height="202" as="geometry" />
        </mxCell>
        <mxCell id="8iYAL62ja1nZ0vtUhIU6-0" value="Position" style="swimlane;fontStyle=1;align=center;verticalAlign=top;childLayout=stackLayout;horizontal=1;startSize=26;horizontalStack=0;resizeParent=1;resizeParentMax=0;resizeLast=0;collapsible=1;marginBottom=0;whiteSpace=wrap;html=1;" parent="WIyWlLk6GJQsqaUBKTNV-1" vertex="1">
          <mxGeometry x="730" y="864" width="210" height="170" as="geometry" />
        </mxCell>
        <mxCell id="8iYAL62ja1nZ0vtUhIU6-1" value="- x: float&lt;div&gt;- y: float&lt;br&gt;&lt;div&gt;&lt;br&gt;&lt;/div&gt;&lt;/div&gt;" style="text;strokeColor=none;fillColor=none;align=left;verticalAlign=top;spacingLeft=4;spacingRight=4;overflow=hidden;rotatable=0;points=[[0,0.5],[1,0.5]];portConstraint=eastwest;whiteSpace=wrap;html=1;" parent="8iYAL62ja1nZ0vtUhIU6-0" vertex="1">
          <mxGeometry y="26" width="210" height="44" as="geometry" />
        </mxCell>
        <mxCell id="8iYAL62ja1nZ0vtUhIU6-2" value="" style="line;strokeWidth=1;fillColor=none;align=left;verticalAlign=middle;spacingTop=-1;spacingLeft=3;spacingRight=3;rotatable=0;labelPosition=right;points=[];portConstraint=eastwest;strokeColor=inherit;" parent="8iYAL62ja1nZ0vtUhIU6-0" vertex="1">
          <mxGeometry y="70" width="210" height="8" as="geometry" />
        </mxCell>
        <mxCell id="8iYAL62ja1nZ0vtUhIU6-3" value="+ Position(x: float, y: float):&lt;div&gt;+ getX(): float&lt;/div&gt;&lt;div&gt;+ getY(): float&lt;/div&gt;&lt;div&gt;+ update(x: float, y: float);&lt;/div&gt;&lt;div&gt;+ distanceFrom(pos: Position): float&lt;/div&gt;" style="text;strokeColor=none;fillColor=none;align=left;verticalAlign=top;spacingLeft=4;spacingRight=4;overflow=hidden;rotatable=0;points=[[0,0.5],[1,0.5]];portConstraint=eastwest;whiteSpace=wrap;html=1;" parent="8iYAL62ja1nZ0vtUhIU6-0" vertex="1">
          <mxGeometry y="78" width="210" height="92" as="geometry" />
        </mxCell>
        <mxCell id="8iYAL62ja1nZ0vtUhIU6-4" value="AgentTank" style="swimlane;fontStyle=1;align=center;verticalAlign=top;childLayout=stackLayout;horizontal=1;startSize=26;horizontalStack=0;resizeParent=1;resizeParentMax=0;resizeLast=0;collapsible=1;marginBottom=0;whiteSpace=wrap;html=1;" parent="WIyWlLk6GJQsqaUBKTNV-1" vertex="1">
          <mxGeometry x="490" y="579" width="220" height="250" as="geometry" />
        </mxCell>
        <mxCell id="3Jw2S-eIn3hg3tQyEcCP-6" value="&lt;div&gt;+ &lt;u&gt;CAPACITY&lt;span style=&quot;color: light-dark(rgb(0, 0, 0), rgb(255, 255, 255)); background-color: transparent;&quot;&gt;: float&lt;/span&gt;&lt;span style=&quot;color: light-dark(rgb(0, 0, 0), rgb(255, 255, 255)); background-color: transparent;&quot;&gt;&amp;nbsp;= &amp;lt;val&amp;gt;&lt;/span&gt;&lt;/u&gt;&lt;br&gt;&lt;/div&gt;- &lt;u&gt;AGENT_DROP_RATE:&lt;span style=&quot;color: light-dark(rgb(0, 0, 0), rgb(255, 255, 255)); background-color: transparent;&quot;&gt;&amp;nbsp;float&lt;/span&gt;&lt;span style=&quot;color: light-dark(rgb(0, 0, 0), rgb(255, 255, 255)); background-color: transparent;&quot;&gt;&amp;nbsp;= &amp;lt;val&amp;gt;&lt;/span&gt;&lt;/u&gt;&lt;div&gt;-&amp;nbsp;&lt;u&gt;NOZZLE_TIME&lt;/u&gt;&lt;u style=&quot;color: light-dark(rgb(0, 0, 0), rgb(255, 255, 255)); background-color: transparent;&quot;&gt;: float&lt;/u&gt;&lt;u style=&quot;color: light-dark(rgb(0, 0, 0), rgb(255, 255, 255)); background-color: transparent;&quot;&gt;&amp;nbsp;= &amp;lt;val&amp;gt;&lt;/u&gt;&lt;u style=&quot;color: light-dark(rgb(0, 0, 0), rgb(255, 255, 255)); background-color: transparent;&quot;&gt;&lt;br&gt;&lt;/u&gt;&lt;/div&gt;&lt;div&gt;- currAgentAmount: float&lt;/div&gt;&lt;div&gt;- isNozzleOpen: boolean&lt;/div&gt;" style="text;strokeColor=none;fillColor=none;align=left;verticalAlign=top;spacingLeft=4;spacingRight=4;overflow=hidden;rotatable=0;points=[[0,0.5],[1,0.5]];portConstraint=eastwest;whiteSpace=wrap;html=1;" parent="8iYAL62ja1nZ0vtUhIU6-4" vertex="1">
          <mxGeometry y="26" width="220" height="84" as="geometry" />
        </mxCell>
        <mxCell id="8iYAL62ja1nZ0vtUhIU6-6" value="" style="line;strokeWidth=1;fillColor=none;align=left;verticalAlign=middle;spacingTop=-1;spacingLeft=3;spacingRight=3;rotatable=0;labelPosition=right;points=[];portConstraint=eastwest;strokeColor=inherit;" parent="8iYAL62ja1nZ0vtUhIU6-4" vertex="1">
          <mxGeometry y="110" width="220" height="8" as="geometry" />
        </mxCell>
        <mxCell id="8iYAL62ja1nZ0vtUhIU6-7" value="+ AgentTank():&lt;div&gt;+ openNozzle(): void&lt;/div&gt;&lt;div&gt;+ closeNozzle(): void&lt;/div&gt;&lt;div&gt;+ isNozzleOpen(): boolean&lt;/div&gt;&lt;div&gt;+ refill(): void&lt;/div&gt;&lt;div&gt;+ isEmpty(): boolean&lt;/div&gt;&lt;div&gt;+ getCurrAgentAmount(): float&lt;/div&gt;&lt;div&gt;+ decreaseAgent(amount: float): void&lt;/div&gt;" style="text;strokeColor=none;fillColor=none;align=left;verticalAlign=top;spacingLeft=4;spacingRight=4;overflow=hidden;rotatable=0;points=[[0,0.5],[1,0.5]];portConstraint=eastwest;whiteSpace=wrap;html=1;" parent="8iYAL62ja1nZ0vtUhIU6-4" vertex="1">
          <mxGeometry y="118" width="220" height="132" as="geometry" />
        </mxCell>
        <mxCell id="8iYAL62ja1nZ0vtUhIU6-9" value="Zone" style="swimlane;fontStyle=1;align=center;verticalAlign=top;childLayout=stackLayout;horizontal=1;startSize=26;horizontalStack=0;resizeParent=1;resizeParentMax=0;resizeLast=0;collapsible=1;marginBottom=0;whiteSpace=wrap;html=1;" parent="WIyWlLk6GJQsqaUBKTNV-1" vertex="1">
          <mxGeometry x="1160" y="854" width="320" height="260" as="geometry" />
        </mxCell>
        <mxCell id="8iYAL62ja1nZ0vtUhIU6-10" value="&lt;div&gt;- id: int&lt;/div&gt;- position: Position&lt;div&gt;- severity: FireSeverity&amp;nbsp;&lt;/div&gt;&lt;div&gt;- requiredAgentAmount: float&lt;/div&gt;&lt;div&gt;&lt;br&gt;&lt;/div&gt;" style="text;strokeColor=none;fillColor=none;align=left;verticalAlign=top;spacingLeft=4;spacingRight=4;overflow=hidden;rotatable=0;points=[[0,0.5],[1,0.5]];portConstraint=eastwest;whiteSpace=wrap;html=1;" parent="8iYAL62ja1nZ0vtUhIU6-9" vertex="1">
          <mxGeometry y="26" width="320" height="64" as="geometry" />
        </mxCell>
        <mxCell id="8iYAL62ja1nZ0vtUhIU6-11" value="" style="line;strokeWidth=1;fillColor=none;align=left;verticalAlign=middle;spacingTop=-1;spacingLeft=3;spacingRight=3;rotatable=0;labelPosition=right;points=[];portConstraint=eastwest;strokeColor=inherit;" parent="8iYAL62ja1nZ0vtUhIU6-9" vertex="1">
          <mxGeometry y="90" width="320" height="8" as="geometry" />
        </mxCell>
        <mxCell id="8iYAL62ja1nZ0vtUhIU6-12" value="+ Zone(zoneStart: Position, zoneEnd: Position):&lt;div&gt;&lt;div&gt;+ setSeverity(severity: FireSeverity): void&lt;/div&gt;&lt;div&gt;+ getSeverity(): FireSeverity&lt;/div&gt;&lt;div&gt;+ setPosition(position: Position): void&lt;/div&gt;&lt;div&gt;+ getPosition(): Position&lt;/div&gt;&lt;div&gt;+ setId(id: int): void&lt;/div&gt;&lt;div&gt;+ getId(): int&lt;/div&gt;&lt;div&gt;+ setRequiredAgent(amountRequired: float): void&lt;/div&gt;&lt;div&gt;+ getRequiredAgent(): float&lt;/div&gt;&lt;div&gt;+ equals(obj: Object): boolean&lt;/div&gt;&lt;div&gt;&lt;br&gt;&lt;/div&gt;&lt;div&gt;&lt;div&gt;&lt;br&gt;&lt;/div&gt;&lt;/div&gt;&lt;/div&gt;" style="text;strokeColor=none;fillColor=none;align=left;verticalAlign=top;spacingLeft=4;spacingRight=4;overflow=hidden;rotatable=0;points=[[0,0.5],[1,0.5]];portConstraint=eastwest;whiteSpace=wrap;html=1;" parent="8iYAL62ja1nZ0vtUhIU6-9" vertex="1">
          <mxGeometry y="98" width="320" height="162" as="geometry" />
        </mxCell>
        <mxCell id="v5a_JtyLuiKGbZSBBkoW-1" value="&amp;lt;&amp;lt;enumeration&amp;gt;&amp;gt;&lt;br&gt;&lt;b&gt;FireSeverity&lt;/b&gt;" style="swimlane;fontStyle=0;align=center;verticalAlign=top;childLayout=stackLayout;horizontal=1;startSize=40;horizontalStack=0;resizeParent=1;resizeParentMax=0;resizeLast=0;collapsible=0;marginBottom=0;html=1;whiteSpace=wrap;" parent="WIyWlLk6GJQsqaUBKTNV-1" vertex="1">
          <mxGeometry x="930" y="670" width="140" height="110" as="geometry" />
        </mxCell>
        <mxCell id="v5a_JtyLuiKGbZSBBkoW-2" value="NO_FIRE,&lt;div&gt;LOW,&lt;/div&gt;&lt;div&gt;MODERATE,&lt;/div&gt;&lt;div&gt;HIGH&lt;/div&gt;" style="text;html=1;strokeColor=none;fillColor=none;align=left;verticalAlign=middle;spacingLeft=4;spacingRight=4;overflow=hidden;rotatable=0;points=[[0,0.5],[1,0.5]];portConstraint=eastwest;whiteSpace=wrap;" parent="v5a_JtyLuiKGbZSBBkoW-1" vertex="1">
          <mxGeometry y="40" width="140" height="70" as="geometry" />
        </mxCell>
        <mxCell id="MMEQ76p3ZuOn5TUmwQS6-1" value="MissionQueue" style="swimlane;fontStyle=1;align=center;verticalAlign=top;childLayout=stackLayout;horizontal=1;startSize=26;horizontalStack=0;resizeParent=1;resizeParentMax=0;resizeLast=0;collapsible=1;marginBottom=0;whiteSpace=wrap;html=1;" parent="WIyWlLk6GJQsqaUBKTNV-1" vertex="1">
          <mxGeometry x="610" y="74" width="280" height="180" as="geometry" />
        </mxCell>
        <mxCell id="MMEQ76p3ZuOn5TUmwQS6-2" value="&lt;div&gt;+&amp;nbsp;&lt;u&gt;HIGH_SEVERITY: int = 0&lt;/u&gt;&lt;/div&gt;&lt;div&gt;+&amp;nbsp;&lt;u&gt;MODERATE_SEVERITY: int = 1&lt;/u&gt;&lt;/div&gt;&lt;div&gt;+&amp;nbsp;&lt;u&gt;LOW_SEVERITY: int = 2&lt;/u&gt;&lt;/div&gt;- missions: Queue&amp;lt;Queue&amp;lt;Zone&amp;gt;&amp;gt;" style="text;strokeColor=none;fillColor=none;align=left;verticalAlign=top;spacingLeft=4;spacingRight=4;overflow=hidden;rotatable=0;points=[[0,0.5],[1,0.5]];portConstraint=eastwest;whiteSpace=wrap;html=1;" parent="MMEQ76p3ZuOn5TUmwQS6-1" vertex="1">
          <mxGeometry y="26" width="280" height="64" as="geometry" />
        </mxCell>
        <mxCell id="MMEQ76p3ZuOn5TUmwQS6-3" value="" style="line;strokeWidth=1;fillColor=none;align=left;verticalAlign=middle;spacingTop=-1;spacingLeft=3;spacingRight=3;rotatable=0;labelPosition=right;points=[];portConstraint=eastwest;strokeColor=inherit;" parent="MMEQ76p3ZuOn5TUmwQS6-1" vertex="1">
          <mxGeometry y="90" width="280" height="8" as="geometry" />
        </mxCell>
        <mxCell id="MMEQ76p3ZuOn5TUmwQS6-4" value="+ MissionQueue():&lt;div&gt;+ queue(zone: Zone): void&lt;/div&gt;&lt;div&gt;+ pop(zoneId: Zone): Zone&lt;/div&gt;&lt;div&gt;+ peek(): Zone&lt;/div&gt;&lt;div&gt;+ isEmpty(): boolean&lt;/div&gt;" style="text;strokeColor=none;fillColor=none;align=left;verticalAlign=top;spacingLeft=4;spacingRight=4;overflow=hidden;rotatable=0;points=[[0,0.5],[1,0.5]];portConstraint=eastwest;whiteSpace=wrap;html=1;" parent="MMEQ76p3ZuOn5TUmwQS6-1" vertex="1">
          <mxGeometry y="98" width="280" height="82" as="geometry" />
        </mxCell>
        <mxCell id="MMEQ76p3ZuOn5TUmwQS6-10" value="the FireIncidentSubsystem can directly access the scheduler to, say, scheduler.getMissionQueue.queueMission()" style="shape=note;whiteSpace=wrap;html=1;backgroundOutline=1;darkOpacity=0.05;size=16;" parent="WIyWlLk6GJQsqaUBKTNV-1" vertex="1">
          <mxGeometry x="790" y="564" width="330" height="60" as="geometry" />
        </mxCell>
        <mxCell id="3Jw2S-eIn3hg3tQyEcCP-0" value="MissionQueue is a priority queue. Index 0 should correspond to HIGH_SEVERITY. within the HIGH_SEVERITY queue, we should have zones ordered from most agent required to least" style="shape=note;whiteSpace=wrap;html=1;backgroundOutline=1;darkOpacity=0.05;size=15;" parent="WIyWlLk6GJQsqaUBKTNV-1" vertex="1">
          <mxGeometry x="920" y="74" width="360" height="90" as="geometry" />
        </mxCell>
        <mxCell id="3Jw2S-eIn3hg3tQyEcCP-1" value="As a drone is servicing a zone, it needs to update the amount of agent the zone still needs in real-time" style="shape=note;whiteSpace=wrap;html=1;backgroundOutline=1;darkOpacity=0.05;size=12;" parent="WIyWlLk6GJQsqaUBKTNV-1" vertex="1">
          <mxGeometry x="320" y="1000" width="290" height="60" as="geometry" />
        </mxCell>
        <mxCell id="3Jw2S-eIn3hg3tQyEcCP-4" value="" style="endArrow=diamondThin;endFill=1;endSize=24;html=1;rounded=0;entryX=0.5;entryY=0;entryDx=0;entryDy=0;exitX=0.536;exitY=1.019;exitDx=0;exitDy=0;exitPerimeter=0;" parent="WIyWlLk6GJQsqaUBKTNV-1" source="MMEQ76p3ZuOn5TUmwQS6-4" target="dD8fBHzeQAmdIIVGzdC5-3" edge="1">
          <mxGeometry width="160" relative="1" as="geometry">
            <mxPoint x="740" y="254" as="sourcePoint" />
            <mxPoint x="840" y="519" as="targetPoint" />
          </mxGeometry>
        </mxCell>
        <mxCell id="3Jw2S-eIn3hg3tQyEcCP-7" value="" style="endArrow=diamondThin;endFill=1;endSize=24;html=1;rounded=0;exitX=-0.005;exitY=0.238;exitDx=0;exitDy=0;exitPerimeter=0;entryX=0.997;entryY=0.932;entryDx=0;entryDy=0;entryPerimeter=0;" parent="WIyWlLk6GJQsqaUBKTNV-1" source="3Jw2S-eIn3hg3tQyEcCP-6" target="dD8fBHzeQAmdIIVGzdC5-20" edge="1">
          <mxGeometry width="160" relative="1" as="geometry">
            <mxPoint x="680" y="639" as="sourcePoint" />
            <mxPoint x="400" y="620" as="targetPoint" />
          </mxGeometry>
        </mxCell>
        <mxCell id="3Jw2S-eIn3hg3tQyEcCP-10" value="" style="endArrow=diamondThin;endFill=1;endSize=24;html=1;rounded=0;exitX=1;exitY=0.5;exitDx=0;exitDy=0;" parent="WIyWlLk6GJQsqaUBKTNV-1" source="dD8fBHzeQAmdIIVGzdC5-4" edge="1">
          <mxGeometry width="160" relative="1" as="geometry">
            <mxPoint x="950" y="539" as="sourcePoint" />
            <mxPoint x="1150" y="382" as="targetPoint" />
          </mxGeometry>
        </mxCell>
        <mxCell id="3Jw2S-eIn3hg3tQyEcCP-12" value="" style="endArrow=diamondThin;endFill=1;endSize=24;html=1;rounded=0;entryX=0.416;entryY=0.997;entryDx=0;entryDy=0;entryPerimeter=0;exitX=0.5;exitY=0;exitDx=0;exitDy=0;" parent="WIyWlLk6GJQsqaUBKTNV-1" source="8iYAL62ja1nZ0vtUhIU6-9" target="dD8fBHzeQAmdIIVGzdC5-10" edge="1">
          <mxGeometry width="160" relative="1" as="geometry">
            <mxPoint x="1360" y="821.84" as="sourcePoint" />
            <mxPoint x="1360.4500000000003" y="749.0000000000001" as="targetPoint" />
          </mxGeometry>
        </mxCell>
        <mxCell id="3Jw2S-eIn3hg3tQyEcCP-13" value="" style="endArrow=diamondThin;endFill=1;endSize=24;html=1;rounded=0;entryX=0;entryY=0.5;entryDx=0;entryDy=0;exitX=1;exitY=0.5;exitDx=0;exitDy=0;" parent="WIyWlLk6GJQsqaUBKTNV-1" source="8iYAL62ja1nZ0vtUhIU6-1" target="8iYAL62ja1nZ0vtUhIU6-10" edge="1">
          <mxGeometry width="160" relative="1" as="geometry">
            <mxPoint x="930" y="929" as="sourcePoint" />
            <mxPoint x="1090" y="929" as="targetPoint" />
          </mxGeometry>
        </mxCell>
        <mxCell id="GtYG0GThT2T0ZaeKtl46-0" value="" style="endArrow=diamondThin;endFill=0;endSize=24;html=1;rounded=0;exitX=-0.013;exitY=0.916;exitDx=0;exitDy=0;exitPerimeter=0;entryX=0.451;entryY=1.001;entryDx=0;entryDy=0;entryPerimeter=0;" parent="WIyWlLk6GJQsqaUBKTNV-1" source="8iYAL62ja1nZ0vtUhIU6-12" target="dD8fBHzeQAmdIIVGzdC5-22" edge="1">
          <mxGeometry width="160" relative="1" as="geometry">
            <mxPoint x="780" y="910" as="sourcePoint" />
            <mxPoint x="240" y="970" as="targetPoint" />
            <Array as="points">
              <mxPoint x="236" y="1100" />
            </Array>
          </mxGeometry>
        </mxCell>
        <mxCell id="GtYG0GThT2T0ZaeKtl46-1" value="&amp;lt;&amp;lt;enumeration&amp;gt;&amp;gt;&lt;br&gt;&lt;b&gt;DroneStatus&lt;/b&gt;" style="swimlane;fontStyle=0;align=center;verticalAlign=top;childLayout=stackLayout;horizontal=1;startSize=40;horizontalStack=0;resizeParent=1;resizeParentMax=0;resizeLast=0;collapsible=0;marginBottom=0;html=1;whiteSpace=wrap;" parent="WIyWlLk6GJQsqaUBKTNV-1" vertex="1">
          <mxGeometry x="50" y="930" width="140" height="130" as="geometry" />
        </mxCell>
        <mxCell id="GtYG0GThT2T0ZaeKtl46-2" value="DROPPING_AGENT,&lt;div&gt;EMPTY,&lt;/div&gt;&lt;div&gt;ENROUTE,&lt;/div&gt;&lt;div&gt;BASE,&lt;/div&gt;&lt;div&gt;ARRIVED&lt;/div&gt;" style="text;html=1;strokeColor=none;fillColor=none;align=left;verticalAlign=middle;spacingLeft=4;spacingRight=4;overflow=hidden;rotatable=0;points=[[0,0.5],[1,0.5]];portConstraint=eastwest;whiteSpace=wrap;" parent="GtYG0GThT2T0ZaeKtl46-1" vertex="1">
          <mxGeometry y="40" width="140" height="90" as="geometry" />
        </mxCell>
        <mxCell id="tHijJnbsAswJRiMfHp_O-0" value="" style="endArrow=diamondThin;endFill=1;endSize=24;html=1;rounded=0;entryX=0.001;entryY=0.334;entryDx=0;entryDy=0;entryPerimeter=0;exitX=0.991;exitY=0.066;exitDx=0;exitDy=0;exitPerimeter=0;" parent="WIyWlLk6GJQsqaUBKTNV-1" source="dD8fBHzeQAmdIIVGzdC5-20" target="dD8fBHzeQAmdIIVGzdC5-6" edge="1">
          <mxGeometry width="160" relative="1" as="geometry">
            <mxPoint x="850" y="650" as="sourcePoint" />
            <mxPoint x="690" y="650" as="targetPoint" />
          </mxGeometry>
        </mxCell>
        <mxCell id="tHijJnbsAswJRiMfHp_O-6" value="" style="endArrow=diamondThin;endFill=1;endSize=24;html=1;rounded=0;entryX=0.5;entryY=0;entryDx=0;entryDy=0;exitX=0;exitY=0.5;exitDx=0;exitDy=0;" parent="WIyWlLk6GJQsqaUBKTNV-1" source="dD8fBHzeQAmdIIVGzdC5-4" target="dD8fBHzeQAmdIIVGzdC5-19" edge="1">
          <mxGeometry width="160" relative="1" as="geometry">
            <mxPoint x="180" y="330" as="sourcePoint" />
            <mxPoint x="340" y="330" as="targetPoint" />
            <Array as="points">
              <mxPoint x="250" y="382" />
            </Array>
          </mxGeometry>
        </mxCell>
        <mxCell id="tHijJnbsAswJRiMfHp_O-7" value="" style="endArrow=diamondThin;endFill=1;endSize=24;html=1;rounded=0;entryX=1.01;entryY=0.746;entryDx=0;entryDy=0;entryPerimeter=0;exitX=0;exitY=0.5;exitDx=0;exitDy=0;" parent="WIyWlLk6GJQsqaUBKTNV-1" source="8iYAL62ja1nZ0vtUhIU6-3" target="dD8fBHzeQAmdIIVGzdC5-22" edge="1">
          <mxGeometry width="160" relative="1" as="geometry">
            <mxPoint x="690" y="770" as="sourcePoint" />
            <mxPoint x="850" y="770" as="targetPoint" />
            <Array as="points">
              <mxPoint x="440" y="990" />
              <mxPoint x="440" y="800" />
            </Array>
          </mxGeometry>
        </mxCell>
        <mxCell id="tHijJnbsAswJRiMfHp_O-11" value="" style="endArrow=diamondThin;endFill=1;endSize=24;html=1;rounded=0;entryX=0.11;entryY=0.995;entryDx=0;entryDy=0;entryPerimeter=0;exitX=0.619;exitY=-0.008;exitDx=0;exitDy=0;exitPerimeter=0;" parent="WIyWlLk6GJQsqaUBKTNV-1" source="GtYG0GThT2T0ZaeKtl46-1" target="dD8fBHzeQAmdIIVGzdC5-22" edge="1">
          <mxGeometry width="160" relative="1" as="geometry">
            <mxPoint x="-90" y="693.17" as="sourcePoint" />
            <mxPoint x="70" y="693.17" as="targetPoint" />
          </mxGeometry>
        </mxCell>
        <mxCell id="tHijJnbsAswJRiMfHp_O-12" value="" style="endArrow=diamondThin;endFill=1;endSize=24;html=1;rounded=0;entryX=0.25;entryY=0;entryDx=0;entryDy=0;exitX=1;exitY=0.5;exitDx=0;exitDy=0;" parent="WIyWlLk6GJQsqaUBKTNV-1" source="v5a_JtyLuiKGbZSBBkoW-2" target="8iYAL62ja1nZ0vtUhIU6-9" edge="1">
          <mxGeometry width="160" relative="1" as="geometry">
            <mxPoint x="1090" y="790" as="sourcePoint" />
            <mxPoint x="1250" y="790" as="targetPoint" />
            <Array as="points">
              <mxPoint x="1240" y="745" />
            </Array>
          </mxGeometry>
        </mxCell>
      </root>
    </mxGraphModel>
  </diagram>
</mxfile>
